<?xml version="1.0" encoding="utf-8"?>
<!DOCTYPE svg PUBLIC "-//W3C//DTD SVG 1.1//EN" "http://www.w3.org/Graphics/SVG/1.1/DTD/svg11.dtd">
<svg  xmlns="http://www.w3.org/2000/svg" xmlns:xlink="http://www.w3.org/1999/xlink" version="1.1" baseProfile="full" width="36" height="36" viewBox="0 0 36 36" enable-background="new 0 0 36 36" xml:space="preserve">
	<path id="play" d="M15.7,0l49.4,37.1v2.9L15.7,76V0z"/>
  <path id="next" d="M0,0l49.7,38L0,76V0z M58.5,2.9H76v70.2H58.5V2.9z"/>
  <path id="prev" d="M76,76L26.3,38L76,0V76z M17.5,73.1H0L0,2.9h17.5V73.1z"/>
  <path id="pause" d="M8.4,0h16.9v76H8.4V0z M50.7,0h16.9v76H50.7V0z"/>
  <path id="vk" d="M 50.8536,32.7152C 50.7923,32.7152 48.1109,32.7859 46.7389,32.7925C 44.9723,32.7992 43.4136,32.1899 42.1643,30.9858C 40.7616,29.6352 39.4896,28.1485 38.1336,26.7485C 37.6749,26.2739 37.1669,25.8298 36.6203,25.4632C 35.8869,24.9712 35.2549,25.0952 34.6749,25.7552C 33.9683,26.5565 33.7696,27.5552 33.6483,28.5699C 33.5563,29.3365 33.5789,30.1205 33.4336,30.8752C 33.2203,31.9672 32.4296,32.5952 31.1829,32.6498C 27.5789,32.8112 24.0349,32.5739 20.6749,31.0565C 17.6323,29.6832 15.0523,27.7205 12.8683,25.2085C 8.7776,20.5032 5.7496,15.1232 2.9576,9.5965C 2.06027,7.82184 1.24293,6.00586 0.388267,4.20721C 0.332267,4.0885 0.2736,3.96851 0.222933,3.84589C -0.3624,2.40588 0.2176,1.51385 1.78693,1.44855C 2.27493,1.42853 2.76293,1.43921 3.25093,1.43121C 5.26827,1.39917 7.28427,1.35651 9.30027,1.33789C 11.0216,1.32318 11.8189,1.84589 12.4709,3.41119C 14.0269,7.14453 15.9243,10.6899 18.3749,13.9165C 18.8496,14.5432 19.4389,15.1085 20.0629,15.5885C 20.6963,16.0765 21.3496,15.9045 21.6189,15.1512C 21.9269,14.2899 22.1989,13.3645 22.2189,12.4619C 22.2656,10.2098 22.2136,7.95117 22.1003,5.7005C 22.0136,3.96851 21.1523,3.09387 19.4296,2.71521C 18.7163,2.5592 18.6163,2.24585 19.0936,1.65521C 19.9349,0.612549 21.1203,0.205872 22.3696,0.137878C 24.6469,0.0151978 26.9323,-0.0167847 29.2123,0.00585938C 30.0603,0.0151978 30.9203,0.22583 31.7496,0.443176C 32.8083,0.719177 33.3576,1.52319 33.4896,2.56451C 33.5989,3.4165 33.6309,4.28589 33.6136,5.14722C 33.5643,7.42853 33.4389,9.7085 33.4083,11.9899C 33.3963,12.8218 33.4856,13.6738 33.6723,14.4845C 33.9829,15.8298 34.8736,16.1578 35.8069,15.1725C 36.9563,13.9592 37.9723,12.6032 38.9309,11.2299C 40.6869,8.71387 41.9763,5.94318 43.1163,3.10321C 43.6456,1.78455 44.1123,1.44983 45.5016,1.44452C 48.5403,1.4325 51.5789,1.42053 54.6176,1.42853C 55.0776,1.42853 55.5563,1.46716 55.9909,1.60052C 56.8856,1.87384 57.2216,2.54187 56.9949,3.47253C 56.5136,5.44855 55.4309,7.13116 54.2789,8.75385C 52.5083,11.2458 50.6469,13.6725 48.8443,16.1418C 47.3149,18.2365 47.3909,18.9792 49.2256,20.8245C 51.0389,22.6472 52.8949,24.4312 54.6336,26.3218C 55.4483,27.2072 56.1136,28.2605 56.7016,29.3179C 57.5003,30.7525 57.0363,31.9445 55.4616,32.3445C 54.3683,32.6219 53.1923,32.5792 52.0509,32.6632C 51.6549,32.6925 50.9149,32.7152 50.8536,32.7152 Z"/>
  <path id="shuffle" d="M 28.5,47.5L 28.5,41.1666L 6.33333,22.5626L 6.33332,13.8542L 0,20.5833L 0,10.2917L 9.49997,0L 19,10.2917L 19,20.5833L 12.6667,13.8542L 12.6667,20.5833L 34.8333,39.5833L 34.8333,47.5L 28.5,47.5 Z M 12.6667,47.5L 6.33333,47.5L 6.33331,39.5833L 15.1076,32.0625L 19.2667,35.6274L 12.6666,41.1667L 12.6667,47.5 Z M 28.5,20.5834L 28.5,13.8542L 22.1667,20.5834L 22.1667,10.2917L 31.6667,6.10352e-005L 41.1667,10.2917L 41.1667,20.5834L 34.8334,13.8542L 34.8334,22.5627L 26.2001,29.8084L 21.9687,26.1816L 28.5,20.5834 Z "/>
  <path id="repeat" d="M 3.28933,1.45917L 0,1.45917L 0.121333,1.33521C 0.550667,0.905823 0.98,0.475159 1.412,0.0471802L 1.51867,0.00183105C 3.096,-0.000793457 4.67333,0.000488281 6.25067,0.000488281L 6.32533,0.0751953C 6.32533,1.65253 6.32533,3.22986 6.32533,4.80719L 6.27867,4.92188C 5.82,5.37787 5.36267,5.83521 4.87067,6.31653L 4.812,2.98053C 4.34133,3.42188 3.95867,3.93115 3.64267,4.49384C 3.4,4.9245 3.20933,5.37653 3.088,5.85651C 2.988,6.2525 2.96,6.65387 2.99333,7.06049C 3.048,7.73785 3.24267,8.37115 3.57867,8.96185C 3.728,9.22186 3.892,9.47388 4.09867,9.69116C 4.51733,10.1312 4.98267,10.5125 5.53467,10.7805C 6.02667,11.0192 6.544,11.1725 7.08667,11.2245C 8.008,11.3138 8.88133,11.1472 9.7,10.7085C 10.496,10.2819 11.1133,9.66986 11.5507,8.88049C 11.8387,8.36316 12.016,7.80853 12.0813,7.21783C 12.1853,6.26184 12.016,5.35651 11.5547,4.51385C 11.0733,3.63385 10.3733,2.98187 9.46667,2.55518C 9.06667,2.36719 8.64667,2.24585 8.21067,2.18054L 8.15067,2.1192C 8.152,1.43518 8.152,0.75116 8.15733,0.0271606C 8.29467,0.0444946 8.42933,0.0578613 8.564,0.0778198C 9.23867,0.183167 9.88533,0.383179 10.4987,0.685852C 11.288,1.07654 11.976,1.60052 12.56,2.2605C 13.1427,2.91785 13.58,3.66187 13.8693,4.48987C 14.036,4.9632 14.1547,5.44849 14.196,5.94983C 14.2227,6.27649 14.2453,6.60583 14.236,6.9325C 14.2147,7.76849 14.0307,8.57251 13.7,9.34186C 13.4027,10.0352 13.0013,10.6619 12.4907,11.2152C 12.0627,11.6792 11.5733,12.0685 11.036,12.3992C 10.54,12.7032 10.0133,12.9365 9.456,13.1019C 9.08267,13.2139 8.70133,13.2912 8.31333,13.3339C 7.87067,13.3832 7.42933,13.3805 6.984,13.3565C 5.96667,13.3032 5.03467,12.9819 4.16133,12.4765C 3.316,11.9885 2.61867,11.3352 2.05733,10.5378C 1.59067,9.87384 1.25733,9.14716 1.056,8.36053C 0.902667,7.75787 0.830667,7.14716 0.850667,6.52582C 0.870667,5.90851 1.00533,5.3125 1.21067,4.7312C 1.568,3.72186 2.104,2.81653 2.8,2.00452C 2.94,1.84052 3.09333,1.68854 3.28933,1.45917 Z "/>
  <path id="like" d="M 52.2716,27.8072C 48.9356,24.164 42.0671,25.7204 38.0992,31.3618C 33.0737,25.3024 27.0713,24.164 23.7257,27.8072C 14.4142,37.9485 34.3451,52.5246 37.9599,54.1634L 38.0438,54.2109L 38.0438,54.1634C 41.6554,52.5246 61.5832,37.9485 52.2716,27.8072 Z " />
  <path id="dislike" d="M 52.2716,27.8072C 61.5832,37.9485 41.6554,52.5246 38.0438,54.1634L 38.0438,54.2109L 37.9599,54.1634C 34.3451,52.5246 14.4142,37.9485 23.7257,27.8072C 26.6898,24.5794 31.7394,25.1049 36.3474,29.4807L 34,42L 38,40.5L 38,54L 43,35.5L 39,37L 41.4683,27.9496C 45.2405,25.2689 49.7584,25.0626 52.2716,27.8072 Z " />
  <path id="search" d="M 42.5,22C 49.4036,22 55,27.5964 55,34.5C 55,41.4036 49.4036,47 42.5,47C 40.1356,47 37.9245,46.3435 36,45.2426L 26.9749,54.2678C 25.8033,55.4393 23.9038,55.4393 22.7322,54.2678C 21.5607,53.0962 21.5607,51.1967 22.7322,50.0251L 31.7971,40.961C 30.6565,39.0755 30,36.8644 30,34.5C 30,27.5964 35.5964,22 42.5,22 Z M 42.5,26C 37.8056,26 34,29.8056 34,34.5C 34,39.1944 37.8056,43 42.5,43C 47.1944,43 51,39.1944 51,34.5C 51,29.8056 47.1944,26 42.5,26 Z"/>
</svg>
